<svg  viewBox="0 0 27 27" fill="none" xmlns="http://www.w3.org/2000/svg">
<path d="M23.0468 3.9539C17.7747 -1.31767 9.22664 -1.31826 3.9539 3.9539C-1.31826 9.22606 -1.31767 17.7741 3.9539 23.0468C9.22606 28.3178 17.7741 28.3184 23.0468 23.0468C28.3184 17.7741 28.3178 9.22664 23.0468 3.9539ZM15.2607 19.3701C15.2607 20.3427 14.4724 21.131 13.4998 21.131C12.5272 21.131 11.7389 20.3427 11.7389 19.3701V12.3264C11.7389 11.3538 12.5272 10.5655 13.4998 10.5655C14.4724 10.5655 15.2607 11.3538 15.2607 12.3264V19.3701ZM13.4687 9.31645C12.4544 9.31645 11.7782 8.598 11.7993 7.71109C11.7782 6.78133 12.4544 6.0846 13.4892 6.0846C14.5246 6.0846 15.1797 6.78192 15.2014 7.71109C15.2008 8.598 14.5252 9.31645 13.4687 9.31645Z" fill="#5C504F"/>
</svg>
