<svg width="7" height="11" viewBox="0 0 7 11" fill="none" xmlns="http://www.w3.org/2000/svg">
<path d="M6.5555 5.07078L1.66036 0.17573C1.54714 0.0624223 1.396 0 1.23485 0C1.07369 0 0.922558 0.0624223 0.809339 0.17573L0.448846 0.536134C0.214271 0.770977 0.214271 1.15267 0.448846 1.38715L4.55941 5.49772L0.444285 9.61285C0.331066 9.72616 0.268555 9.8772 0.268555 10.0383C0.268555 10.1995 0.331066 10.3506 0.444285 10.464L0.804778 10.8243C0.918086 10.9376 1.06913 11 1.23029 11C1.39144 11 1.54258 10.9376 1.6558 10.8243L6.5555 5.92475C6.66898 5.81108 6.73132 5.65932 6.73096 5.49799C6.73132 5.33603 6.66898 5.18436 6.5555 5.07078Z" fill="#544241"/>
</svg>
