<svg  viewBox="0 0 16 20" fill="none" xmlns="http://www.w3.org/2000/svg">
<path d="M10.7707 17.3779C10.7707 18.3709 10.2426 19.1309 9.38493 19.6276C8.52753 20.1241 7.47106 20.1241 6.61526 19.6276C5.75733 19.1309 5.22949 18.3709 5.22949 17.3779" fill="#585858"/>
<path d="M7.99973 0C8.75546 0 9.36415 0.46706 9.36415 1.18531C9.36415 1.63739 9.3799 1.97471 9.6633 2.06111C12.0732 2.79059 13.6186 4.50047 13.6186 6.72102V10.4532C13.6186 12.1631 14.3164 12.5092 15.1946 13.1633C16.4664 14.1089 16.1761 16.078 14.7167 16.0767H1.28331C-0.176112 16.078 -0.466448 14.1089 0.805374 13.1633C1.68252 12.5092 2.38141 12.1631 2.38141 10.4532V6.72102C2.38141 4.50047 3.92676 2.79059 6.33671 2.06111C6.6193 1.97471 6.63585 1.63739 6.63585 1.18531C6.63611 0.46706 7.24507 0 7.99973 0Z" fill="#585858"/>
</svg>
