<svg  viewBox="0 0 27 27" fill="none" xmlns="http://www.w3.org/2000/svg">
<path d="M20.5269 17.8611C19.6448 16.9903 18.5436 16.9903 17.6671 17.8611C16.9985 18.5241 16.3299 19.1871 15.6726 19.8613C15.4928 20.0467 15.3411 20.086 15.1219 19.9624C14.6893 19.7264 14.2286 19.5354 13.8128 19.277C11.8745 18.0578 10.2508 16.4902 8.81243 14.726C8.09889 13.8495 7.46401 12.9113 7.02015 11.855C6.93025 11.6415 6.94711 11.501 7.12128 11.3269C7.78988 10.6807 8.44162 10.0178 9.09897 9.35479C10.0148 8.43336 10.0148 7.35462 9.09336 6.42758C8.57084 5.89944 8.04832 5.38255 7.52581 4.85441C6.98644 4.31504 6.45269 3.77005 5.9077 3.2363C5.0256 2.37668 3.92439 2.37668 3.04791 3.24192C2.3737 3.9049 1.72757 4.58473 1.04212 5.23647C0.40724 5.83764 0.0869883 6.57366 0.0195669 7.43328C-0.0871835 8.83227 0.255542 10.1526 0.738728 11.4392C1.72757 14.1024 3.23332 16.4677 5.05931 18.6365C7.52581 21.5693 10.4699 23.8897 13.914 25.564C15.4647 26.3169 17.0715 26.8956 18.8189 26.9911C20.0212 27.0585 21.0663 26.7551 21.9034 25.8168C22.4765 25.1763 23.1226 24.592 23.7294 23.9796C24.6284 23.0694 24.634 21.9682 23.7406 21.0692C22.6731 19.9961 21.6 18.9286 20.5269 17.8611Z" fill="#5C504F"/>
<path d="M19.4537 13.3832L21.5269 13.0293C21.201 11.1246 20.3021 9.39975 18.9368 8.02885C17.4928 6.58491 15.6668 5.67472 13.6554 5.3938L13.3633 7.47824C14.9196 7.69736 16.3354 8.39967 17.4535 9.51774C18.5098 10.574 19.2008 11.9112 19.4537 13.3832Z" fill="#5C504F"/>
<path d="M22.6956 4.37115C20.3021 1.97769 17.2738 0.466331 13.9308 0L13.6387 2.08444C16.5266 2.48897 19.1447 3.79807 21.2123 5.86004C23.1732 7.82088 24.4598 10.2986 24.9261 13.0236L26.9993 12.6696C26.4543 9.51203 24.9655 6.64662 22.6956 4.37115Z" fill="#5C504F"/>
</svg>
