<svg width="11" height="7" viewBox="0 0 11 7" fill="none" xmlns="http://www.w3.org/2000/svg">
<path d="M5.92922 6.55574L10.8243 1.6606C10.9376 1.54738 11 1.39625 11 1.23509C11 1.07394 10.9376 0.922802 10.8243 0.809583L10.4639 0.44909C10.229 0.214515 9.84733 0.214515 9.61285 0.44909L5.50228 4.55966L1.38715 0.444529C1.27384 0.33131 1.1228 0.268798 0.961732 0.268798C0.800489 0.268798 0.649442 0.33131 0.536044 0.444529L0.17573 0.805022C0.0624218 0.91833 -3.49944e-08 1.06938 -4.20386e-08 1.23053C-4.90829e-08 1.39168 0.0624217 1.54282 0.17573 1.65604L5.07525 6.55574C5.18892 6.66923 5.34068 6.73156 5.50201 6.7312C5.66397 6.73156 5.81564 6.66923 5.92922 6.55574Z" fill="#544241"/>
</svg>
