<svg  viewBox="0 0 42 42" fill="none" xmlns="http://www.w3.org/2000/svg">
<circle cx="21" cy="21" r="19.5" fill="#FF7034" stroke="#FFEDD7" stroke-width="3"/>
<g clip-path="url(#clip0_212_3764)">
<path d="M25.0833 20.0268C24.7607 20.0268 24.5 20.2882 24.5 20.6101V25.2768C24.5 25.5982 24.2386 25.8601 23.9167 25.8601H15.75C15.428 25.8601 15.1667 25.5982 15.1667 25.2768V17.1101C15.1667 16.7887 15.428 16.5268 15.75 16.5268H20.4167C20.7393 16.5268 21 16.2654 21 15.9435C21 15.6215 20.7393 15.3601 20.4167 15.3601H15.75C14.7852 15.3601 14 16.1453 14 17.1101V25.2768C14 26.2416 14.7852 27.0268 15.75 27.0268H23.9167C24.8815 27.0268 25.6667 26.2416 25.6667 25.2768V20.6101C25.6667 20.2875 25.4059 20.0268 25.0833 20.0268Z" fill="white"/>
<path d="M19.4697 19.4955C19.4288 19.5363 19.4014 19.5882 19.3898 19.6441L18.9774 21.7069C18.9581 21.8025 18.9885 21.9011 19.0573 21.9705C19.1127 22.0259 19.1873 22.0556 19.2638 22.0556C19.2824 22.0556 19.3017 22.0539 19.321 22.0499L21.3831 21.6375C21.4402 21.6257 21.4921 21.5984 21.5324 21.5574L26.1477 16.9421L24.0856 14.8801L19.4697 19.4955Z" fill="white"/>
<path d="M27.5725 13.4539C27.0038 12.8852 26.0786 12.8852 25.5104 13.4539L24.7031 14.2612L26.7652 16.3233L27.5725 15.5159C27.8479 15.2412 27.9995 14.8748 27.9995 14.4852C27.9995 14.0955 27.8479 13.7292 27.5725 13.4539Z" fill="white"/>
</g>
<defs>
<clipPath id="clip0_212_3764">
<rect width="14" height="14" fill="white" transform="translate(14 13)"/>
</clipPath>
</defs>
</svg>
