<svg  viewBox="0 0 21 21" fill="none" xmlns="http://www.w3.org/2000/svg">
<g clip-path="url(#clip0_212_3676)">
<path d="M16.6249 10.5403C16.1411 10.5403 15.75 10.9324 15.75 11.4153V18.4153C15.75 18.8974 15.3579 19.2903 14.8751 19.2903H2.625C2.14194 19.2903 1.75005 18.8974 1.75005 18.4153V6.16528C1.75005 5.68319 2.14194 5.29034 2.625 5.29034H9.62505C10.1089 5.29034 10.5 4.89828 10.5 4.41539C10.5 3.93233 10.1089 3.54028 9.62505 3.54028H2.625C1.17776 3.54028 0 4.71804 0 6.16528V18.4153C0 19.8626 1.17776 21.0403 2.625 21.0403H14.8751C16.3223 21.0403 17.5001 19.8626 17.5001 18.4153V11.4153C17.5001 10.9314 17.1088 10.5403 16.6249 10.5403Z" fill="#544241"/>
<path d="M8.20399 9.7433C8.14279 9.8045 8.10161 9.88237 8.08415 9.96632L7.46555 13.0604C7.43671 13.2038 7.48221 13.3517 7.58539 13.4559C7.66854 13.539 7.78053 13.5835 7.89525 13.5835C7.92313 13.5835 7.95213 13.581 7.98097 13.5749L11.0741 12.9563C11.1598 12.9387 11.2377 12.8977 11.2981 12.8363L18.2211 5.91331L15.1279 2.82031L8.20399 9.7433Z" fill="#544241"/>
<path d="M20.3597 0.680883C19.5067 -0.172274 18.1189 -0.172274 17.2666 0.680883L16.0557 1.89181L19.1488 4.98496L20.3597 3.77388C20.7728 3.3618 21.0003 2.81225 21.0003 2.22778C21.0003 1.64331 20.7728 1.09376 20.3597 0.680883Z" fill="#544241"/>
</g>
<defs>
<clipPath id="clip0_212_3676">
<rect width="21" height="21" fill="white"/>
</clipPath>
</defs>
</svg>
