<svg  viewBox="0 0 22 22" fill="none" xmlns="http://www.w3.org/2000/svg">
<g clip-path="url(#clip0_212_3680)">
<path d="M11 4.44287C6.79667 4.44287 2.98486 6.74255 0.172139 10.4779C-0.0573796 10.7839 -0.0573796 11.2114 0.172139 11.5174C2.98486 15.2572 6.79667 17.5569 11 17.5569C15.2033 17.5569 19.0151 15.2572 21.8279 11.5219C22.0574 11.2159 22.0574 10.7884 21.8279 10.4824C19.0151 6.74255 15.2033 4.44287 11 4.44287ZM11.3015 15.6173C8.5113 15.7928 6.20712 13.4931 6.38263 10.6984C6.52664 8.39419 8.39429 6.52654 10.6985 6.38253C13.4887 6.20701 15.7929 8.50669 15.6174 11.3014C15.4689 13.6011 13.6012 15.4687 11.3015 15.6173ZM11.162 13.4841C9.65889 13.5786 8.41679 12.341 8.5158 10.8379C8.59231 9.59578 9.60039 8.5922 10.8425 8.51119C12.3456 8.41669 13.5877 9.65429 13.4887 11.1574C13.4077 12.404 12.3996 13.4076 11.162 13.4841Z" fill="#544241"/>
</g>
<defs>
<clipPath id="clip0_212_3680">
<rect width="22" height="22" fill="white"/>
</clipPath>
</defs>
</svg>
