<svg width="27" height="27" viewBox="0 0 27 27" fill="none" xmlns="http://www.w3.org/2000/svg">
<g clip-path="url(#clip0_212_1914)">
<path d="M13.5 27C20.9558 27 27 20.9558 27 13.5C27 6.04416 20.9558 0 13.5 0C6.04416 0 0 6.04416 0 13.5C0 20.9558 6.04416 27 13.5 27Z" fill="#3A559F"/>
<path d="M17.7769 11.9015L17.5054 14.2532C17.4941 14.3605 17.4438 14.46 17.3641 14.5327C17.2843 14.6053 17.1807 14.6462 17.0728 14.6475H14.6182L14.606 21.6199C14.6068 21.7026 14.5751 21.7822 14.5177 21.8416C14.4602 21.901 14.3817 21.9355 14.2991 21.9375H11.8124C11.771 21.9375 11.7301 21.9292 11.6921 21.913C11.654 21.8968 11.6196 21.8731 11.591 21.8433C11.5623 21.8135 11.54 21.7782 11.5253 21.7396C11.5106 21.7009 11.5039 21.6597 11.5056 21.6184V14.6475H9.66466C9.60684 14.6469 9.5497 14.6349 9.49651 14.6122C9.44333 14.5895 9.39513 14.5566 9.35467 14.5153C9.31421 14.474 9.28229 14.4251 9.26072 14.3715C9.23915 14.3178 9.22837 14.2604 9.22897 14.2026L9.21977 11.8509C9.21896 11.7928 9.22958 11.7352 9.25104 11.6813C9.2725 11.6274 9.30437 11.5782 9.34482 11.5366C9.38528 11.495 9.43354 11.4618 9.48684 11.4389C9.54013 11.4159 9.59743 11.4037 9.65545 11.4029H11.5056V9.13244C11.5056 6.49687 13.0703 5.0625 15.3653 5.0625H17.2461C17.3043 5.0631 17.3617 5.07517 17.4152 5.09803C17.4687 5.12089 17.5171 5.15408 17.5578 5.19569C17.5984 5.23731 17.6304 5.28654 17.6519 5.34055C17.6735 5.39457 17.6842 5.4523 17.6833 5.51045V7.48943C17.6842 7.54758 17.6735 7.60532 17.6519 7.65933C17.6304 7.71335 17.5984 7.76257 17.5578 7.80419C17.5171 7.84581 17.4687 7.879 17.4152 7.90185C17.3617 7.92471 17.3043 7.93679 17.2461 7.93739H16.0925C14.8453 7.93739 14.6029 8.55102 14.6029 9.43773V11.4029H17.3443C17.4067 11.4037 17.4681 11.4176 17.5247 11.4439C17.5813 11.4701 17.6316 11.508 17.6725 11.5551C17.7133 11.6022 17.7438 11.6574 17.7618 11.7171C17.7798 11.7768 17.7849 11.8396 17.7769 11.9015Z" fill="white"/>
</g>
<defs>
<clipPath id="clip0_212_1914">
<rect width="27" height="27" fill="white"/>
</clipPath>
</defs>
</svg>
