<svg viewBox="0 0 22 22" fill="none" xmlns="http://www.w3.org/2000/svg">
<path d="M3.99436 1.4473H18.66C18.93 1.4473 19.1932 1.48476 19.4486 1.54703C19.165 0.653351 18.3379 0 17.3513 0H5.23004C4.2376 0 3.4062 0.661622 3.12793 1.56357C3.40669 1.48865 3.69712 1.4473 3.99436 1.4473Z" fill="#585858"/>
<path d="M2.53381 3.8919H20.0473C20.3402 3.8919 20.6223 3.93617 20.8889 4.01692C20.8466 3.89287 20.7975 3.77076 20.7352 3.65546C20.3212 2.89363 19.5263 2.42076 18.6599 2.42076H3.99424C3.12538 2.42076 2.329 2.89606 1.91597 3.6613C1.85808 3.76882 1.81186 3.88168 1.77148 3.99698C2.01473 3.93082 2.26965 3.89238 2.53381 3.89238V3.8919Z" fill="#585858"/>
<path d="M20.0473 4.86486H2.53384C1.45919 4.86486 0.587891 5.73616 0.587891 6.81081V16.054C0.587891 17.1287 1.45919 18 2.53384 18H20.0473C21.122 18 21.9933 17.1287 21.9933 16.054V6.81081C21.9933 5.73616 21.122 4.86486 20.0473 4.86486ZM14.6542 12.6963L10.2758 15.2241C10.0471 15.3559 9.79659 15.4221 9.54605 15.4221C9.29551 15.4221 9.04449 15.3564 8.81632 15.2241C8.35951 14.9604 8.08659 14.488 8.08659 13.9602V8.90464C8.08659 8.37681 8.35951 7.90443 8.81632 7.64075C9.27313 7.37708 9.81897 7.37708 10.2758 7.64075L14.6542 10.1685C15.111 10.4322 15.3839 10.9051 15.3839 11.4324C15.3839 11.9598 15.111 12.4326 14.6542 12.6963Z" fill="#585858"/>
<path d="M18.6395 6.23343H3.62791C2.70679 6.23343 1.95996 6.90957 1.95996 7.74351V14.9164C1.95996 15.7503 2.70679 16.4265 3.62791 16.4265H18.6395C19.5606 16.4265 20.3075 15.7503 20.3075 14.9164V7.74351C20.3075 6.90957 19.5606 6.23343 18.6395 6.23343ZM14.0168 12.3108L10.2639 14.2723C10.0679 14.3747 9.85313 14.426 9.63839 14.426C9.42364 14.426 9.20847 14.375 9.0129 14.2723C8.62135 14.0677 8.38742 13.7012 8.38742 13.2915V9.36836C8.38742 8.95875 8.62135 8.59218 9.0129 8.38756C9.40446 8.18294 9.87232 8.18294 10.2639 8.38756L14.0168 10.3492C14.4083 10.5538 14.6422 10.9207 14.6422 11.33C14.6422 11.7392 14.4083 12.1061 14.0168 12.3108Z" fill="#585858"/>
</svg>
