<svg  viewBox="0 0 27 27" fill="none" xmlns="http://www.w3.org/2000/svg">
<g clip-path="url(#clip0_212_4862)">
<path d="M16.474 10.5239C16.1541 10.2022 15.7995 9.91698 15.4167 9.67355C14.4027 9.02424 13.2238 8.67921 12.0198 8.67921C10.3485 8.6761 8.74522 9.34012 7.56555 10.5239L1.84258 16.2514C0.664917 17.4313 0.00300893 19.03 0.00195443 20.697C-0.000260017 24.1758 2.81799 26.9977 6.29678 26.9999C7.96542 27.0057 9.56726 26.3448 10.7465 25.1642L15.4707 20.4401C15.5565 20.355 15.6044 20.2389 15.6037 20.118C15.6023 19.8695 15.3997 19.6693 15.1512 19.6707H14.9712C13.9842 19.6742 13.006 19.4847 12.0918 19.1128C11.9233 19.0435 11.7297 19.0826 11.6014 19.2118L8.20447 22.6132C7.14966 23.668 5.43947 23.668 4.38466 22.6132C3.32984 21.5584 3.32984 19.8482 4.38466 18.7934L10.1301 13.0524C11.1841 11.9998 12.8915 11.9998 13.9455 13.0524C14.6558 13.7209 15.7637 13.7209 16.474 13.0524C16.7796 12.7466 16.9649 12.3409 16.9959 11.9096C17.0288 11.3942 16.8387 10.8895 16.474 10.5239Z" fill="#5C504F"/>
<path d="M25.1528 1.84499C22.6928 -0.614996 18.7043 -0.614996 16.2444 1.84499L11.5247 6.56012C11.3951 6.69035 11.3577 6.88623 11.4302 7.05505C11.5019 7.22435 11.6693 7.33302 11.8531 7.32949H12.0196C13.0054 7.32769 13.982 7.51872 14.8945 7.8919C15.063 7.96124 15.2566 7.92211 15.3849 7.79294L18.7728 4.40953C19.8276 3.35471 21.5378 3.35471 22.5926 4.40953C23.6475 5.46434 23.6475 7.17453 22.5926 8.22934L18.3724 12.4451L18.3364 12.4856L16.8607 13.9523C15.8067 15.005 14.0993 15.005 13.0453 13.9523C12.335 13.2838 11.2271 13.2838 10.5168 13.9523C10.2093 14.2605 10.0238 14.6697 9.99487 15.1041C9.96197 15.6195 10.152 16.1242 10.5168 16.4899C11.0376 17.0128 11.6468 17.4393 12.3165 17.7496C12.4109 17.7946 12.5054 17.8306 12.5999 17.8711C12.6944 17.9116 12.7934 17.9431 12.8878 17.9791C12.9823 18.0151 13.0813 18.0466 13.1758 18.0736L13.4412 18.1455C13.6212 18.1905 13.8012 18.2265 13.9856 18.258C14.2078 18.291 14.4316 18.312 14.656 18.321H14.9709H14.9979L15.2679 18.2895C15.3669 18.285 15.4704 18.2625 15.5874 18.2625H15.7403L16.0507 18.2175L16.1947 18.1906L16.4557 18.1366H16.5052C17.6104 17.859 18.6195 17.2867 19.4251 16.4808L25.1526 10.7534C27.6127 8.2934 27.6127 4.30498 25.1528 1.84499Z" fill="#5C504F"/>
</g>
<defs>
<clipPath id="clip0_212_4862">
<rect width="27" height="27" fill="white"/>
</clipPath>
</defs>
</svg>
