<svg viewBox="0 0 17 16" fill="none" xmlns="http://www.w3.org/2000/svg">
<path d="M1.3421 8.94738C0.602039 8.94738 0 8.34534 0 7.60527C0 6.86521 0.602039 6.26317 1.3421 6.26317H15.6579C16.398 6.26317 17 6.86521 17 7.60527C17 8.34534 16.398 8.94738 15.6579 8.94738H1.3421Z" fill="#585858"/>
<path d="M1.3421 2.68421C0.602039 2.68421 0 2.0822 0 1.3421C0 0.602006 0.602039 0 1.3421 0H15.6579C16.398 0 17 0.602039 17 1.3421C17 2.08217 16.398 2.68421 15.6579 2.68421H1.3421Z" fill="#585858"/>
<path d="M1.3421 15.2105C0.602039 15.2105 0 14.6085 0 13.8684C0 13.1284 0.602039 12.5263 1.3421 12.5263H15.6579C16.398 12.5263 17 13.1284 17 13.8684C17 14.6085 16.398 15.2105 15.6579 15.2105H1.3421Z" fill="#585858"/>
</svg>
