<svg width="23" height="22" viewBox="0 0 23 22" fill="none" xmlns="http://www.w3.org/2000/svg">
<path d="M22.1907 17.2651L20.9851 2.07182C20.9102 1.09291 20.0821 0.326416 19.1005 0.326416H16.7188V3.85524C16.7188 4.29225 16.3651 4.64599 15.9281 4.64599C15.4916 4.64599 15.1373 4.29225 15.1373 3.85524V0.326416H7.86255V3.85524C7.86255 4.29225 7.50828 4.64599 7.0718 4.64599C6.63479 4.64599 6.28104 4.29225 6.28104 3.85524V0.326416H3.89935C2.9178 0.326416 2.08961 1.09291 2.01478 2.06971L0.80864 17.2672C0.715353 18.4844 1.1376 19.6958 1.96679 20.5909C2.79604 21.486 3.9716 22 5.19197 22H17.8079C19.0283 22 20.2039 21.486 21.0331 20.5909C21.8623 19.6957 22.2846 18.4843 22.1907 17.2651ZM15.0625 9.52793L10.9728 13.6176C10.8183 13.7721 10.6159 13.8496 10.4135 13.8496C10.211 13.8496 10.0086 13.7721 9.85417 13.6176L7.93743 11.7009C7.62851 11.392 7.62851 10.8917 7.93743 10.5828C8.24635 10.2739 8.74717 10.2739 9.05556 10.5828L10.4135 11.9402L13.9444 8.40933C14.2528 8.10094 14.7536 8.10094 15.0625 8.40933C15.3714 8.71825 15.3714 9.21901 15.0625 9.52793Z" fill="#5C504F"/>
</svg>
