<svg width="20" height="20" viewBox="0 0 20 20" fill="none" xmlns="http://www.w3.org/2000/svg">
<path fill-rule="evenodd" clip-rule="evenodd" d="M1.91107 11.0774C2.23651 10.752 2.76414 10.752 3.08958 11.0774L5.83366 13.8215C6.1591 14.1469 6.1591 14.6745 5.83366 15C5.50822 15.3254 4.98059 15.3254 4.65515 15L1.91107 12.2559C1.58563 11.9305 1.58563 11.4028 1.91107 11.0774Z" fill="#808080"/>
<path d="M18.1119 4.73188C18.4241 4.3937 18.403 3.86648 18.0648 3.55431C17.7266 3.24214 17.1994 3.26323 16.8872 3.60142L7.45245 13.8224C7.14028 14.1606 7.16137 14.6878 7.49955 15C7.83773 15.3122 8.36495 15.2911 8.67712 14.9529L14.4295 8.72117C14.59 8.54728 14.8629 8.54182 15.0303 8.70916L16.077 9.7559C16.4024 10.0813 16.9301 10.0813 17.2555 9.7559C17.581 9.43047 17.581 8.90283 17.2555 8.57739L16.1381 7.45994C15.9799 7.3018 15.9748 7.04703 16.1265 6.88269L18.1119 4.73188Z" fill="#808080"/>
<path fill-rule="evenodd" clip-rule="evenodd" d="M4.89885 10.7323L3.43438 9.2678C2.45807 8.29149 2.45807 6.70857 3.43438 5.73226L6.56552 2.60113C7.54183 1.62482 9.12474 1.62482 10.101 2.60113L11.5655 4.0656C12.5418 5.04191 12.5418 6.62482 11.5655 7.60113L8.43438 10.7323C7.45807 11.7086 5.87516 11.7086 4.89885 10.7323ZM4.61289 8.08929L6.07736 9.55375C6.4028 9.87919 6.93043 9.87919 7.25587 9.55375L10.387 6.42262C10.7124 6.09718 10.7124 5.56954 10.387 5.24411L8.92254 3.77964C8.5971 3.4542 8.06946 3.4542 7.74403 3.77964L4.61289 6.91077C4.28746 7.23621 4.28746 7.76385 4.61289 8.08929Z" fill="#808080"/>
<path fill-rule="evenodd" clip-rule="evenodd" d="M6.66699 16.6666C7.12723 16.6666 7.50033 16.2936 7.50033 15.8333C7.50033 15.3731 7.12723 15 6.66699 15C6.20676 15 5.83366 15.3731 5.83366 15.8333C5.83366 16.2936 6.20676 16.6666 6.66699 16.6666ZM6.66699 18.3333C8.0477 18.3333 9.16699 17.214 9.16699 15.8333C9.16699 14.4526 8.0477 13.3333 6.66699 13.3333C5.28628 13.3333 4.16699 14.4526 4.16699 15.8333C4.16699 17.214 5.28628 18.3333 6.66699 18.3333Z" fill="#808080"/>
</svg>
