<svg width="16" height="16" viewBox="0 0 22 14" fill="none" xmlns="http://www.w3.org/2000/svg">
<path d="M11 0.442871C6.79667 0.442871 2.98486 2.74255 0.172139 6.47785C-0.0573796 6.78388 -0.0573796 7.21141 0.172139 7.51743C2.98486 11.2572 6.79667 13.5569 11 13.5569C15.2033 13.5569 19.0151 11.2572 21.8279 7.52193C22.0574 7.21591 22.0574 6.78838 21.8279 6.48235C19.0151 2.74255 15.2033 0.442871 11 0.442871ZM11.3015 11.6173C8.5113 11.7928 6.20712 9.49309 6.38263 6.69837C6.52664 4.39419 8.39429 2.52654 10.6985 2.38253C13.4887 2.20701 15.7929 4.50669 15.6174 7.30142C15.4689 9.6011 13.6012 11.4687 11.3015 11.6173ZM11.162 9.48409C9.65889 9.5786 8.41679 8.341 8.5158 6.83788C8.59231 5.59578 9.60039 4.5922 10.8425 4.51119C12.3456 4.41669 13.5877 5.65429 13.4887 7.15741C13.4077 8.404 12.3996 9.40758 11.162 9.48409Z" fill="#9CA4AB"/>
</svg>
