<svg width="20" height="20" viewBox="0 0 20 20" fill="none" xmlns="http://www.w3.org/2000/svg">
<path fill-rule="evenodd" clip-rule="evenodd" d="M15.833 4.16667H4.16634C3.24587 4.16667 2.49967 4.91286 2.49967 5.83333V14.1667C2.49967 15.0871 3.24587 15.8333 4.16634 15.8333H15.833C16.7535 15.8333 17.4997 15.0871 17.4997 14.1667V5.83333C17.4997 4.91286 16.7535 4.16667 15.833 4.16667ZM4.16634 2.5C2.32539 2.5 0.833008 3.99238 0.833008 5.83333V14.1667C0.833008 16.0076 2.32539 17.5 4.16634 17.5H15.833C17.674 17.5 19.1663 16.0076 19.1663 14.1667V5.83333C19.1663 3.99238 17.674 2.5 15.833 2.5H4.16634Z" fill="#808080"/>
<path fill-rule="evenodd" clip-rule="evenodd" d="M10.833 10C10.833 7.69882 12.6985 5.83334 14.9997 5.83334H18.333C18.7932 5.83334 19.1663 6.20644 19.1663 6.66668C19.1663 7.12691 18.7932 7.50001 18.333 7.50001H14.9997C13.619 7.50001 12.4997 8.6193 12.4997 10C12.4997 11.3807 13.619 12.5 14.9997 12.5H18.333C18.7932 12.5 19.1663 12.8731 19.1663 13.3333C19.1663 13.7936 18.7932 14.1667 18.333 14.1667H14.9997C12.6985 14.1667 10.833 12.3012 10.833 10Z" fill="#808080"/>
<path d="M15.8337 9.99999C15.8337 10.4602 15.4606 10.8333 15.0003 10.8333C14.5401 10.8333 14.167 10.4602 14.167 9.99999C14.167 9.53975 14.5401 9.16666 15.0003 9.16666C15.4606 9.16666 15.8337 9.53975 15.8337 9.99999Z" fill="#808080"/>
</svg>
