<svg width="11" height="9" viewBox="0 0 11 9" fill="none" xmlns="http://www.w3.org/2000/svg">
<path d="M9.405 3.1985C9.71783 2.89211 9.9 2.47357 9.9 2.025C9.9 1.11522 9.15986 0.375 8.25 0.375C7.94939 0.375 7.65364 0.457629 7.39438 0.614014C7.30774 0.666393 7.27981 0.778992 7.33208 0.865746C7.38435 0.9525 7.49714 0.98015 7.58381 0.928051C7.78594 0.806127 8.01619 0.741674 8.25 0.741674C8.95755 0.741674 9.53333 1.31737 9.53333 2.025C9.53333 2.46077 9.31509 2.86244 8.94878 3.10001C8.64119 3.3018 8.25125 3.35997 7.89514 3.25855C7.79883 3.23079 7.69641 3.28701 7.66848 3.3844C7.64073 3.48179 7.69712 3.58322 7.79453 3.61106C7.94277 3.65349 8.09602 3.67498 8.25 3.67498C8.53828 3.67498 8.81693 3.59635 9.06432 3.45433C10.0055 3.79536 10.6333 4.68393 10.6333 5.69165V6.60833H8.96158C8.83173 5.3838 8.06135 4.31225 6.93765 3.80343C7.29523 3.43936 7.51665 2.94109 7.51665 2.39167C7.51667 1.27966 6.61199 0.375 5.5 0.375C4.38801 0.375 3.48333 1.27966 3.48333 2.39167C3.48333 2.94127 3.70487 3.43968 4.06265 3.8038C3.68448 3.97561 3.33375 4.21598 3.03628 4.51175C2.46602 5.08364 2.119 5.81766 2.03663 6.60837H0.366674V5.6917C0.366674 5.05683 0.614646 4.45823 1.06421 4.00678C1.31169 3.76087 1.61298 3.57327 1.9374 3.45537C2.18483 3.5968 2.46265 3.675 2.75 3.675C2.90398 3.675 3.05723 3.65352 3.20547 3.61108C3.30286 3.58324 3.35925 3.48181 3.33152 3.38442C3.30359 3.28703 3.20117 3.2309 3.10486 3.25857C2.74893 3.36017 2.35918 3.30207 2.05034 3.09958C1.68493 2.86244 1.46667 2.46079 1.46667 2.025C1.46667 1.31737 2.04246 0.741674 2.75 0.741674C2.98381 0.741674 3.21406 0.806127 3.41619 0.928051C3.5032 0.98015 3.61546 0.952221 3.66792 0.865746C3.72019 0.779014 3.69226 0.666393 3.60562 0.614014C3.34636 0.457629 3.05061 0.375 2.75 0.375C1.84014 0.375 1.1 1.11522 1.1 2.025C1.1 2.47323 1.28187 2.89144 1.5938 3.19755C1.30305 3.33271 1.03452 3.5193 0.804955 3.74734C0.285914 4.26868 0 4.95914 0 5.69167V6.79167C0 6.89293 0.0820059 6.975 0.183326 6.975H2.01665V8.44167C2.01665 8.54293 2.09866 8.625 2.19998 8.625H8.79998C8.90132 8.625 8.9833 8.54291 8.9833 8.44167V6.975H10.8166C10.918 6.975 11 6.89291 11 6.79167V5.69167C11 4.60768 10.37 3.64338 9.405 3.1985ZM3.85 2.39167C3.85 1.4819 4.59014 0.741674 5.5 0.741674C6.40986 0.741674 7.15 1.4819 7.15 2.39167C7.15 3.30145 6.40986 4.04167 5.5 4.04167C4.59014 4.04167 3.85 3.30143 3.85 2.39167ZM8.61667 8.25833H2.38333V6.975C2.38333 6.14373 2.70737 5.3609 3.29534 4.77115C3.60508 4.46307 3.98058 4.2241 4.38318 4.0695C4.70319 4.2832 5.08716 4.40833 5.5 4.40833C5.91353 4.40833 6.29817 4.28284 6.61848 4.06849C7.81683 4.52892 8.61667 5.68422 8.61667 6.975V8.25833Z" fill="#3A3A3A"/>
</svg>
