<svg  viewBox="0 0 47 47" fill="white" xmlns="http://www.w3.org/2000/svg">
<path d="M23.5004 0.171509C10.6166 0.171509 0.171875 10.6161 0.171875 23.5001C0.171875 36.3841 10.6166 46.8287 23.5004 46.8287C36.3843 46.8287 46.829 36.3841 46.829 23.5001C46.829 10.6161 36.3843 0.171509 23.5004 0.171509ZM31.5634 24.7367L19.8991 32.0269C19.6631 32.1742 19.3947 32.2483 19.1263 32.2483C18.8832 32.2483 18.6397 32.1878 18.4194 32.0653C17.9559 31.8083 17.6683 31.3206 17.6683 30.7903V16.2099C17.6683 15.6795 17.9559 15.1918 18.4194 14.9348C18.8828 14.6764 19.4496 14.6921 19.8991 14.9733L31.5634 22.2635C31.9895 22.5305 32.2487 22.9975 32.2487 23.5001C32.2487 24.0026 31.9895 24.4698 31.5634 24.7367Z" fill="white"/>
</svg>
