<svg width="16" height="16" viewBox="0 0 16 16" fill="none" xmlns="http://www.w3.org/2000/svg">
<path d="M1.4868 9.33579L2.21698 9.16451L1.4868 9.33579ZM1.4868 5.243L2.21698 5.41428L1.4868 5.243ZM13.092 5.243L13.8222 5.07173L13.092 5.243ZM13.092 9.33579L13.8222 9.50706L13.092 9.33579ZM9.33579 13.092L9.16451 12.3618L9.33579 13.092ZM5.243 13.092L5.07172 13.8222L5.243 13.092ZM5.243 1.4868L5.07172 0.756615L5.243 1.4868ZM9.33579 1.4868L9.50706 0.756615L9.33579 1.4868ZM14.2197 15.2803C14.5126 15.5732 14.9874 15.5732 15.2803 15.2803C15.5732 14.9874 15.5732 14.5126 15.2803 14.2197L14.2197 15.2803ZM2.21698 9.16451C1.92767 7.93117 1.92767 6.64762 2.21698 5.41428L0.756615 5.07172C0.414461 6.53037 0.414461 8.04842 0.756615 9.50707L2.21698 9.16451ZM12.3618 5.41428C12.6511 6.64762 12.6511 7.93117 12.3618 9.16451L13.8222 9.50706C14.1643 8.04841 14.1643 6.53037 13.8222 5.07173L12.3618 5.41428ZM9.16451 12.3618C7.93117 12.6511 6.64762 12.6511 5.41428 12.3618L5.07172 13.8222C6.53037 14.1643 8.04841 14.1643 9.50706 13.8222L9.16451 12.3618ZM5.41428 2.21698C6.64762 1.92767 7.93117 1.92767 9.16451 2.21698L9.50706 0.756615C8.04841 0.414462 6.53037 0.414462 5.07172 0.756615L5.41428 2.21698ZM5.41428 12.3618C3.82783 11.9897 2.58911 10.751 2.21698 9.16451L0.756615 9.50707C1.25885 11.6482 2.93063 13.3199 5.07172 13.8222L5.41428 12.3618ZM9.50706 13.8222C11.6482 13.3199 13.3199 11.6482 13.8222 9.50706L12.3618 9.16451C11.9897 10.751 10.751 11.9897 9.16451 12.3618L9.50706 13.8222ZM9.16451 2.21698C10.751 2.58911 11.9897 3.82782 12.3618 5.41428L13.8222 5.07173C13.3199 2.93063 11.6482 1.25885 9.50706 0.756615L9.16451 2.21698ZM5.07172 0.756615C2.93063 1.25885 1.25885 2.93063 0.756615 5.07172L2.21698 5.41428C2.58911 3.82782 3.82782 2.58911 5.41428 2.21698L5.07172 0.756615ZM11.471 12.5317L14.2197 15.2803L15.2803 14.2197L12.5317 11.471L11.471 12.5317Z" fill="#6C5A4A"/>
</svg>
