<svg width="20" height="20" viewBox="0 0 20 20" fill="none" xmlns="http://www.w3.org/2000/svg">
<path fill-rule="evenodd" clip-rule="evenodd" d="M14.9997 3.75002C14.9997 3.5199 14.8131 3.33335 14.583 3.33335H5.41634C5.18622 3.33335 4.99967 3.5199 4.99967 3.75002V15.0232C4.99967 15.3051 5.29625 15.4883 5.54831 15.3623C6.25213 15.0104 7.08056 15.0104 7.78437 15.3623L9.627 16.2836C9.8616 16.4009 10.1377 16.4009 10.3724 16.2836L12.215 15.3623C12.9188 15.0104 13.7472 15.0104 14.451 15.3623C14.7031 15.4883 14.9997 15.3051 14.9997 15.0232V3.75002ZM16.6663 17.6592C16.6663 17.9689 16.3404 18.1704 16.0633 18.0319L13.7057 16.853C13.4711 16.7357 13.1949 16.7357 12.9603 16.853L11.1177 17.7743C10.4139 18.1262 9.58546 18.1262 8.88164 17.7743L7.03902 16.853C6.80441 16.7357 6.52827 16.7357 6.29366 16.853L3.93601 18.0319C3.65897 18.1704 3.33301 17.9689 3.33301 17.6592V1.66669H16.6663V17.6592Z" fill="#808080"/>
<path d="M7.50033 5C7.04009 5 6.66699 5.3731 6.66699 5.83333C6.66699 6.29357 7.04009 6.66667 7.50033 6.66667H9.16699C9.62723 6.66667 10.0003 6.29357 10.0003 5.83333C10.0003 5.3731 9.62723 5 9.16699 5H7.50033Z" fill="#808080"/>
<path d="M12.5003 5C12.0401 5 11.667 5.3731 11.667 5.83333C11.667 6.29357 12.0401 6.66667 12.5003 6.66667C12.9606 6.66667 13.3337 6.29357 13.3337 5.83333C13.3337 5.3731 12.9606 5 12.5003 5Z" fill="#808080"/>
<path d="M6.66699 9.16667C6.66699 8.70643 7.04009 8.33333 7.50033 8.33333H9.16699C9.62723 8.33333 10.0003 8.70643 10.0003 9.16667C10.0003 9.6269 9.62723 10 9.16699 10H7.50033C7.04009 10 6.66699 9.6269 6.66699 9.16667Z" fill="#808080"/>
<path d="M12.5003 8.33333C12.0401 8.33333 11.667 8.70643 11.667 9.16667C11.667 9.6269 12.0401 10 12.5003 10C12.9606 10 13.3337 9.6269 13.3337 9.16667C13.3337 8.70643 12.9606 8.33333 12.5003 8.33333Z" fill="#808080"/>
<path d="M6.66699 12.5C6.66699 12.0398 7.04009 11.6667 7.50033 11.6667H9.16699C9.62723 11.6667 10.0003 12.0398 10.0003 12.5C10.0003 12.9602 9.62723 13.3333 9.16699 13.3333H7.50033C7.04009 13.3333 6.66699 12.9602 6.66699 12.5Z" fill="#808080"/>
<path d="M12.5003 11.6667C12.0401 11.6667 11.667 12.0398 11.667 12.5C11.667 12.9602 12.0401 13.3333 12.5003 13.3333C12.9606 13.3333 13.3337 12.9602 13.3337 12.5C13.3337 12.0398 12.9606 11.6667 12.5003 11.6667Z" fill="#808080"/>
<path d="M1.66699 2.50002C1.66699 2.03978 2.04009 1.66669 2.50033 1.66669H17.5003C17.9606 1.66669 18.3337 2.03978 18.3337 2.50002C18.3337 2.96026 17.9606 3.33335 17.5003 3.33335H2.50033C2.04009 3.33335 1.66699 2.96026 1.66699 2.50002Z" fill="#808080"/>
</svg>
