<svg  viewBox="0 0 35 27" fill="" xmlns="http://www.w3.org/2000/svg">
<path d="M5.35354 0.130371C5.35259 0.130371 5.35153 0.130371 5.35059 0.130371C5.01956 0.130371 4.70821 0.259412 4.47311 0.493924C4.23542 0.73103 4.10449 1.04674 4.10449 1.38283V20.1633C4.10449 20.852 4.66697 21.4136 5.35849 21.4154C8.27375 21.4223 13.158 22.03 16.5274 25.556V5.90174C16.5274 5.66829 16.4678 5.44897 16.3552 5.26749C13.5898 0.813875 8.2754 0.137206 5.35354 0.130371Z" fill="#5C504F"/>
<path d="M30.8955 20.1634V1.38283C30.8955 1.04674 30.7645 0.73103 30.5268 0.493924C30.2917 0.259412 29.9802 0.130371 29.6495 0.130371C29.6484 0.130371 29.6474 0.130371 29.6464 0.130371C26.7247 0.137324 21.4103 0.813993 18.6447 5.26761C18.5322 5.44909 18.4727 5.6684 18.4727 5.90186V25.556C21.8421 22.03 26.7263 21.4223 29.6416 21.4154C30.333 21.4136 30.8955 20.852 30.8955 20.1634Z" fill="#5C504F"/>
<path d="M33.7474 4.46143H32.8393V20.1633C32.8393 21.9217 31.4066 23.3555 29.6455 23.3598C27.1728 23.3657 23.0956 23.8492 20.208 26.5822C25.2021 25.3594 30.4667 26.1543 33.467 26.838C33.8417 26.9234 34.2288 26.8352 34.5289 26.596C34.828 26.3574 34.9996 26.0006 34.9996 25.6178V5.71365C34.9997 5.0232 34.4379 4.46143 33.7474 4.46143Z" fill="#5C504F"/>
<path d="M2.16034 20.1633V4.46143H1.25223C0.561888 4.46143 0 5.0232 0 5.71365V25.6174C0 26.0004 0.171583 26.357 0.470675 26.5956C0.770592 26.8348 1.15736 26.9233 1.53258 26.8377C4.53293 26.1538 9.79768 25.3591 14.7915 26.5819C11.904 23.849 7.82683 23.3656 5.35407 23.3597C3.59311 23.3555 2.16034 21.9217 2.16034 20.1633Z" fill="#5C504F"/>
</svg>
