<svg  viewBox="0 0 27 27" fill="none" xmlns="http://www.w3.org/2000/svg">
<g clip-path="url(#clip0_212_4908)">
<path d="M13.3079 13.006C15.0947 13.006 16.6419 12.3651 17.9061 11.1007C19.1703 9.83657 19.8111 8.28977 19.8111 6.50278C19.8111 4.71641 19.1703 3.16941 17.9059 1.90482C16.6415 0.640844 15.0945 0 13.3079 0C11.5209 0 9.97411 0.640844 8.70992 1.90502C7.44574 3.1692 6.80469 4.71621 6.80469 6.50278C6.80469 8.28977 7.44574 9.83678 8.71013 11.101C9.97452 12.3649 11.5215 13.006 13.3079 13.006Z" fill="#5C504F"/>
<path d="M24.6865 20.7616C24.65 20.2355 24.5763 19.6616 24.4677 19.0555C24.3581 18.445 24.217 17.8678 24.0481 17.3402C23.8736 16.795 23.6363 16.2565 23.343 15.7405C23.0385 15.2049 22.6809 14.7385 22.2797 14.3548C21.86 13.9533 21.3463 13.6305 20.7522 13.3951C20.1602 13.1609 19.5041 13.0422 18.8023 13.0422C18.5267 13.0422 18.2601 13.1553 17.7453 13.4904C17.4285 13.697 17.0579 13.936 16.6443 14.2003C16.2906 14.4256 15.8115 14.6368 15.2196 14.828C14.6422 15.0148 14.056 15.1095 13.4773 15.1095C12.8987 15.1095 12.3127 15.0148 11.7346 14.828C11.1434 14.637 10.6643 14.4259 10.311 14.2005C9.90129 13.9387 9.5305 13.6997 9.20895 13.4902C8.69479 13.1551 8.42802 13.042 8.1524 13.042C7.45038 13.042 6.79449 13.1609 6.20267 13.3953C5.609 13.6303 5.09505 13.9531 4.67503 14.355C4.27396 14.739 3.91615 15.2051 3.6121 15.7405C3.31897 16.2565 3.08167 16.7948 2.90698 17.3404C2.73827 17.868 2.59717 18.445 2.48758 19.0555C2.37902 19.6607 2.30527 20.2348 2.26881 20.7622C2.23297 21.2788 2.21484 21.815 2.21484 22.3566C2.21484 23.766 2.66288 24.907 3.54639 25.7485C4.41898 26.5788 5.57357 27.0001 6.97762 27.0001H19.9783C21.3823 27.0001 22.5365 26.579 23.4093 25.7485C24.293 24.9076 24.7411 23.7664 24.7411 22.3564C24.7409 21.8123 24.7225 21.2757 24.6865 20.7616Z" fill="#5C504F"/>
</g>
<defs>
<clipPath id="clip0_212_4908">
<rect width="27" height="27" fill="white"/>
</clipPath>
</defs>
</svg>
