<svg width="27" height="28" viewBox="0 0 27 28" fill="none" xmlns="http://www.w3.org/2000/svg">
<path d="M11.1629 28C12.9124 28.0071 14.4024 26.73 14.6629 25H7.65039C7.93129 26.7237 9.41646 27.9922 11.1629 28Z" fill="#222222"/>
<path d="M20.3499 19.5001H20.225C19.5346 19.5001 18.975 18.9405 18.975 18.2501V13.6501C18.9704 10.8134 17.4236 8.20362 14.9375 6.83762C14.752 6.7488 14.628 6.56768 14.6125 6.36261C14.5782 4.48568 13.0396 2.98609 11.1625 3.0001C9.27511 3.02008 7.74617 4.53794 7.71248 6.42507C7.69736 6.62335 7.58504 6.80124 7.41248 6.90008C4.90022 8.24756 3.32686 10.8618 3.31251 13.7126V18.3876C3.31251 19.0779 2.75288 19.6376 2.06253 19.6376C0.914509 19.6513 -0.00693332 20.5895 3.93119e-05 21.7376C3.93119e-05 21.7459 9.79207e-05 21.7543 0.000215108 21.7627C0.0140432 22.9362 0.97656 23.8763 2.15007 23.8625H20.2125C21.3792 23.9005 22.3557 22.8481 22.3937 21.6814C22.4316 20.5147 21.5167 19.5381 20.3499 19.5001Z" fill="#222222"/>
<!-- <circle cx="19.6973" cy="7" r="6.5" fill="#ED4949" stroke="#FFF6E4"/> -->
<path d="M20.6202 6.816C21.0082 7.048 21.2022 7.386 21.2022 7.83C21.2022 8.218 21.0662 8.524 20.7942 8.748C20.5262 8.972 20.1602 9.084 19.6962 9.084C19.2282 9.084 18.8602 8.972 18.5922 8.748C18.3242 8.524 18.1902 8.218 18.1902 7.83C18.1902 7.386 18.3822 7.048 18.7662 6.816C18.4742 6.604 18.3282 6.314 18.3282 5.946C18.3282 5.558 18.4582 5.256 18.7182 5.04C18.9822 4.824 19.3082 4.716 19.6962 4.716C20.0842 4.716 20.4082 4.824 20.6682 5.04C20.9282 5.256 21.0582 5.558 21.0582 5.946C21.0582 6.318 20.9122 6.608 20.6202 6.816ZM20.0862 5.628C19.9862 5.54 19.8562 5.496 19.6962 5.496C19.5362 5.496 19.4062 5.54 19.3062 5.628C19.2062 5.716 19.1562 5.836 19.1562 5.988C19.1562 6.14 19.2062 6.262 19.3062 6.354C19.4062 6.442 19.5362 6.486 19.6962 6.486C19.8562 6.486 19.9862 6.442 20.0862 6.354C20.1862 6.262 20.2362 6.14 20.2362 5.988C20.2362 5.836 20.1862 5.716 20.0862 5.628ZM19.1982 8.154C19.3262 8.254 19.4922 8.304 19.6962 8.304C19.9002 8.304 20.0642 8.254 20.1882 8.154C20.3162 8.05 20.3802 7.906 20.3802 7.722C20.3802 7.542 20.3162 7.402 20.1882 7.302C20.0642 7.198 19.9002 7.146 19.6962 7.146C19.4922 7.146 19.3262 7.198 19.1982 7.302C19.0742 7.402 19.0122 7.542 19.0122 7.722C19.0122 7.906 19.0742 8.05 19.1982 8.154Z" fill="white"/>
</svg>
