<svg width="32" height="28" viewBox="0 0 32 28" fill="none" xmlns="http://www.w3.org/2000/svg">
<g clip-path="url(#clip0_212_5003)">
<path d="M1.08333 3.08337C0.485025 3.08337 0 3.5684 0 4.16671C0 4.76502 0.485025 5.25004 1.08333 5.25004H3.01091C3.16863 5.25004 3.32237 5.29967 3.45032 5.3919C3.57827 5.48413 3.67396 5.61428 3.72383 5.76392L7.29557 16.4812C7.45419 16.957 7.47435 17.4693 7.3527 17.9559L7.05859 19.1345C6.62705 20.8606 7.97072 22.5834 9.75 22.5834H22.75C23.3483 22.5834 23.8333 22.0984 23.8333 21.5C23.8333 20.9017 23.3483 20.4167 22.75 20.4167H9.75C9.32817 20.4167 9.05736 20.0706 9.15967 19.6613L9.38146 18.7755C9.41904 18.6254 9.50571 18.4922 9.62768 18.397C9.74966 18.3018 9.89996 18.25 10.0547 18.25H21.6667C22.1331 18.2503 22.5474 17.952 22.695 17.5095L25.5832 8.84281C25.8171 8.14105 25.2946 7.41637 24.5549 7.41671H7.10091C6.94318 7.41671 6.78945 7.36708 6.66149 7.27485C6.53353 7.18262 6.43783 7.05247 6.38795 6.90284L5.36165 3.82393C5.21403 3.38146 4.79978 3.08313 4.33333 3.08337H1.08333ZM8.66667 23.6667C7.47005 23.6667 6.5 24.6368 6.5 25.8334C6.5 27.03 7.47005 28 8.66667 28C9.86328 28 10.8333 27.03 10.8333 25.8334C10.8333 24.6368 9.86328 23.6667 8.66667 23.6667ZM21.6667 23.6667C20.4701 23.6667 19.5 24.6368 19.5 25.8334C19.5 27.03 20.4701 28 21.6667 28C22.8633 28 23.8333 27.03 23.8333 25.8334C23.8333 24.6368 22.8633 23.6667 21.6667 23.6667Z" fill="black"/>
</g>
<!-- <circle cx="25" cy="7" r="6.5" fill="#ED4949" stroke="#FFF6E4"/> -->
<!-- <path d="M25.0518 6.162C25.4878 6.174 25.8418 6.316 26.1138 6.588C26.3858 6.856 26.5218 7.2 26.5218 7.62C26.5218 8.048 26.3798 8.4 26.0958 8.676C25.8118 8.948 25.4458 9.084 24.9978 9.084C24.5498 9.084 24.1838 8.948 23.8998 8.676C23.6198 8.404 23.4798 8.052 23.4798 7.62C23.4798 7.3 23.5618 7.018 23.7258 6.774L25.0338 4.8H25.9818L25.0518 6.162ZM24.4998 8.118C24.6318 8.242 24.7978 8.304 24.9978 8.304C25.1978 8.304 25.3638 8.242 25.4958 8.118C25.6318 7.994 25.6998 7.828 25.6998 7.62C25.6998 7.416 25.6318 7.252 25.4958 7.128C25.3638 7.004 25.1978 6.942 24.9978 6.942C24.7978 6.942 24.6318 7.004 24.4998 7.128C24.3678 7.248 24.3018 7.412 24.3018 7.62C24.3018 7.828 24.3678 7.994 24.4998 8.118Z" fill="white"/> -->
<defs>
<clipPath id="clip0_212_5003">
<rect width="26" height="26" fill="white" transform="translate(0 2)"/>
</clipPath>
</defs>
</svg>
