<svg width="13" height="13" viewBox="0 0 13 13" fill="none" xmlns="http://www.w3.org/2000/svg">
<path d="M10.292 3.79169C10.1483 3.79169 10.0106 3.84876 9.90898 3.95034C9.80739 4.05192 9.75033 4.18969 9.75033 4.33335V10.3951C9.73479 10.6691 9.61164 10.9257 9.40772 11.1093C9.20379 11.2928 8.93561 11.3883 8.66158 11.375H4.33908C4.06504 11.3883 3.79686 11.2928 3.59293 11.1093C3.38901 10.9257 3.26586 10.6691 3.25033 10.3951V4.33335C3.25033 4.18969 3.19326 4.05192 3.09167 3.95034C2.99009 3.84876 2.85232 3.79169 2.70866 3.79169C2.565 3.79169 2.42722 3.84876 2.32564 3.95034C2.22406 4.05192 2.16699 4.18969 2.16699 4.33335V10.3951C2.18245 10.9564 2.41972 11.4887 2.82684 11.8754C3.23396 12.2621 3.77773 12.4718 4.33908 12.4584H8.66158C9.22292 12.4718 9.7667 12.2621 10.1738 11.8754C10.5809 11.4887 10.8182 10.9564 10.8337 10.3951V4.33335C10.8337 4.18969 10.7766 4.05192 10.675 3.95034C10.5734 3.84876 10.4357 3.79169 10.292 3.79169Z" fill="#909090"/>
<path d="M10.8333 2.16669H8.66667V1.08335C8.66667 0.939695 8.6096 0.80192 8.50802 0.700337C8.40643 0.598755 8.26866 0.541687 8.125 0.541687H4.875C4.73134 0.541687 4.59357 0.598755 4.49198 0.700337C4.3904 0.80192 4.33333 0.939695 4.33333 1.08335V2.16669H2.16667C2.02301 2.16669 1.88523 2.22376 1.78365 2.32534C1.68207 2.42692 1.625 2.56469 1.625 2.70835C1.625 2.85201 1.68207 2.98979 1.78365 3.09137C1.88523 3.19295 2.02301 3.25002 2.16667 3.25002H10.8333C10.977 3.25002 11.1148 3.19295 11.2164 3.09137C11.3179 2.98979 11.375 2.85201 11.375 2.70835C11.375 2.56469 11.3179 2.42692 11.2164 2.32534C11.1148 2.22376 10.977 2.16669 10.8333 2.16669ZM5.41667 2.16669V1.62502H7.58333V2.16669H5.41667Z" fill="#909090"/>
<path d="M5.95833 9.20833V5.41667C5.95833 5.27301 5.90127 5.13523 5.79968 5.03365C5.6981 4.93207 5.56033 4.875 5.41667 4.875C5.27301 4.875 5.13523 4.93207 5.03365 5.03365C4.93207 5.13523 4.875 5.27301 4.875 5.41667V9.20833C4.875 9.35199 4.93207 9.48977 5.03365 9.59135C5.13523 9.69293 5.27301 9.75 5.41667 9.75C5.56033 9.75 5.6981 9.69293 5.79968 9.59135C5.90127 9.48977 5.95833 9.35199 5.95833 9.20833Z" fill="#909090"/>
<path d="M8.12533 9.20833V5.41667C8.12533 5.27301 8.06826 5.13523 7.96667 5.03365C7.86509 4.93207 7.72732 4.875 7.58366 4.875C7.44 4.875 7.30222 4.93207 7.20064 5.03365C7.09906 5.13523 7.04199 5.27301 7.04199 5.41667V9.20833C7.04199 9.35199 7.09906 9.48977 7.20064 9.59135C7.30222 9.69293 7.44 9.75 7.58366 9.75C7.72732 9.75 7.86509 9.69293 7.96667 9.59135C8.06826 9.48977 8.12533 9.35199 8.12533 9.20833Z" fill="#909090"/>
</svg>
