<svg width="24" height="24" viewBox="0 0 24 24" fill="none" xmlns="http://www.w3.org/2000/svg">
<path d="M16.8978 0H6.38172C2.86283 0 0 2.86283 0 6.38177V16.8978C0 20.4167 2.86283 23.2795 6.38172 23.2795H16.8978C20.4167 23.2795 23.2795 20.4167 23.2795 16.8978V6.38177C23.2795 2.86283 20.4167 0 16.8978 0ZM11.6398 18.0249C8.11895 18.0249 5.25467 15.1605 5.25467 11.6398C5.25467 8.11895 8.119 5.25471 11.6398 5.25471C15.1605 5.25471 18.0249 8.119 18.0249 11.6398C18.0249 15.1605 15.1605 18.0249 11.6398 18.0249ZM18.4068 6.81271C17.3371 6.81271 16.4668 5.94246 16.4668 4.87278C16.4668 3.80311 17.3371 2.93281 18.4068 2.93281C19.4764 2.93281 20.3467 3.80306 20.3467 4.87274C20.3467 5.94241 19.4764 6.81271 18.4068 6.81271Z" fill="white"/>
</svg>
