<svg width="19" height="20" viewBox="0 0 19 20" fill="none" xmlns="http://www.w3.org/2000/svg">
<g clip-path="url(#clip0_212_3935)">
<path d="M14.8202 1.06439H8.98649C8.61727 1.06439 8.26268 1.21912 8.00144 1.49411L0.408057 9.48568C-0.136019 10.0584 -0.136019 10.9868 0.408057 11.5602L6.24173 17.7009C6.7858 18.2736 7.66775 18.2736 8.21182 17.7009L15.8052 9.70933C16.0664 9.43361 16.2134 9.06036 16.2134 8.67097V2.531C16.2134 1.7207 15.5899 1.06439 14.8202 1.06439ZM12.3819 6.19753C11.8051 6.19753 11.337 5.70475 11.337 5.09757C11.337 4.4904 11.8051 3.99762 12.3819 3.99762C12.9587 3.99762 13.4269 4.4904 13.4269 5.09757C13.4269 5.70475 12.9587 6.19753 12.3819 6.19753Z" fill="#544241"/>
<path d="M17.6071 2.53101L17.6064 9.35735C17.6064 9.6954 17.4789 10.0203 17.2511 10.2593L9.53516 18.3814L9.65358 18.5061C10.1977 19.0788 11.0796 19.0788 11.6237 18.5061L18.5915 11.173C18.8534 10.898 19.0004 10.5248 19.0004 10.1361V3.99762C19.0004 3.18731 18.3769 2.53101 17.6071 2.53101Z" fill="#544241"/>
</g>
<defs>
<clipPath id="clip0_212_3935">
<rect width="19" height="20" fill="white"/>
</clipPath>
</defs>
</svg>
