<svg width="30" height="20" viewBox="0 0 30 20" fill="none" xmlns="http://www.w3.org/2000/svg">
<path d="M23.5897 18.5137C23.4657 18.7284 23.2875 18.9069 23.0729 19.0311C22.8583 19.1553 22.6148 19.221 22.3669 19.2216C22.1127 19.2227 21.8628 19.1561 21.6428 19.0286C18.2565 17.2179 14.4399 16.3666 10.6051 16.5668C8.6752 16.6261 6.75619 16.8795 4.87704 17.323C4.69093 17.3919 4.49255 17.4213 4.29448 17.4094C4.09641 17.3975 3.90297 17.3446 3.72644 17.254C3.5499 17.1634 3.39411 17.0371 3.26897 16.8831C3.14382 16.7291 3.05203 16.5508 2.99944 16.3595C2.94686 16.1681 2.93461 15.9679 2.96348 15.7716C2.99234 15.5753 3.0617 15.3871 3.16713 15.219C3.27256 15.0509 3.41179 14.9066 3.57596 14.7951C3.74013 14.6837 3.92566 14.6076 4.1208 14.5716C6.19455 14.0754 8.31308 13.7897 10.4442 13.7189C12.4819 13.6448 14.5216 13.7959 16.5262 14.1694C18.8326 14.5792 21.0491 15.3906 23.0748 16.5668C23.2389 16.6584 23.3828 16.7822 23.4981 16.9306C23.6133 17.0791 23.6974 17.2493 23.7455 17.431C23.7935 17.6126 23.8045 17.8021 23.7777 17.9882C23.751 18.1742 23.687 18.3529 23.5897 18.5137Z" fill="white"/>
<path d="M26.2427 13.0126C26.0909 13.266 25.8765 13.476 25.62 13.6225C25.3636 13.769 25.0738 13.8472 24.7785 13.8493C24.4772 13.8503 24.1818 13.7666 23.9257 13.608C19.919 11.4618 15.3989 10.4598 10.8606 10.7118C8.57102 10.7613 6.2939 11.0635 4.07062 11.6128C3.64389 11.7323 3.18718 11.6774 2.80095 11.4601C2.41471 11.2428 2.13059 10.8811 2.0111 10.4543C1.89162 10.0276 1.94655 9.57086 2.16381 9.18462C2.38107 8.79838 2.74285 8.51429 3.16959 8.3948C5.61726 7.7755 8.12721 7.43544 10.6514 7.38112C13.066 7.27823 15.4844 7.45098 17.8598 7.89601C20.5923 8.39158 23.2204 9.34923 25.6312 10.7278C26.0088 10.9558 26.2833 11.321 26.3973 11.747C26.5113 12.173 26.4559 12.6266 26.2427 13.0126Z" fill="white"/>
<path d="M27.8668 8.00828C27.4988 8.00543 27.138 7.90554 26.821 7.71867C16.282 1.55619 2.68594 5.22472 2.46068 5.2569C1.94832 5.35363 1.41834 5.25396 0.976102 4.97775C0.533865 4.70154 0.211764 4.26901 0.0738866 3.76616C-0.0639908 3.26331 -0.00756335 2.727 0.231949 2.26386C0.471461 1.80072 0.876529 1.44468 1.36657 1.26656C4.37211 0.534942 7.44593 0.119724 10.5379 0.0276416C13.5024 -0.0818108 16.4699 0.134002 19.3874 0.671232C22.7386 1.27365 25.9609 2.44935 28.9127 4.14668C29.3033 4.37797 29.6073 4.73093 29.7782 5.15152C29.949 5.57211 29.9773 6.03711 29.8586 6.47529C29.7399 6.91347 29.4809 7.30066 29.1211 7.57755C28.7614 7.85443 28.3208 8.00573 27.8668 8.00828Z" fill="white"/>
</svg>
