<svg width="38" height="38" viewBox="0 0 38 38" fill="none" xmlns="http://www.w3.org/2000/svg">
<path d="M19.0006 0.600067C8.83868 0.600067 0.600586 8.83802 0.600586 19.0001C0.600586 29.1621 8.83868 37.4001 19.0006 37.4001C29.1625 37.4001 37.4006 29.1621 37.4006 19.0001C37.4006 8.83802 29.1625 0.600067 19.0006 0.600067ZM25.3601 19.9754L16.1601 25.7254C15.9739 25.8416 15.7623 25.9001 15.5506 25.9001C15.3588 25.9001 15.1668 25.8523 14.993 25.7557C14.6274 25.5531 14.4006 25.1684 14.4006 24.7501V13.2501C14.4006 12.8318 14.6274 12.4471 14.993 12.2444C15.3585 12.0406 15.8055 12.0529 16.1601 12.2747L25.3601 18.0247C25.6962 18.2353 25.9006 18.6037 25.9006 19.0001C25.9006 19.3965 25.6962 19.7649 25.3601 19.9754Z" fill="white"/>
</svg>
