<svg width="86" height="18" viewBox="0 0 86 18" fill="none" xmlns="http://www.w3.org/2000/svg">
<path d="M2.806 0.899999H0.253L2.737 17H6.509L8.993 0.899999H6.67L4.738 14.033L2.806 0.899999ZM12.7039 3.2H17.0739V0.899999H10.1739V17H17.0739V14.7H12.7039V9.985H16.1769V7.685H12.7039V3.2ZM18.6417 17H22.6437C25.1737 17 26.4157 15.597 26.4157 13.021V4.879C26.4157 2.303 25.1737 0.899999 22.6437 0.899999H18.6417V17ZM22.5977 3.2C23.4027 3.2 23.8857 3.614 23.8857 4.764V13.136C23.8857 14.286 23.4027 14.7 22.5977 14.7H21.1717V3.2H22.5977ZM27.9154 0.899999V13.159C27.9154 15.735 29.2034 17.207 31.6874 17.207C34.1714 17.207 35.4594 15.735 35.4594 13.159V0.899999H33.0674V13.32C33.0674 14.47 32.5614 14.884 31.7564 14.884C30.9514 14.884 30.4454 14.47 30.4454 13.32V0.899999H27.9154ZM42.1394 10.997V13.297C42.1394 14.447 41.6334 14.861 40.8284 14.861C40.0234 14.861 39.5174 14.447 39.5174 13.297V4.603C39.5174 3.453 40.0234 3.016 40.8284 3.016C41.6334 3.016 42.1394 3.453 42.1394 4.603V6.328H44.5314V4.764C44.5314 2.188 43.2434 0.716 40.7594 0.716C38.2754 0.716 36.9874 2.188 36.9874 4.764V13.136C36.9874 15.712 38.2754 17.184 40.7594 17.184C43.2434 17.184 44.5314 15.712 44.5314 13.136V10.997H42.1394ZM51.6785 0.899999H47.9755L45.3995 17H47.7225L48.1595 14.079H51.2645L51.7015 17H54.2545L51.6785 0.899999ZM49.7005 3.752L50.9195 11.894H48.4815L49.7005 3.752ZM54.6967 3.2H57.3417V17H59.8717V3.2H62.5167V0.899999H54.6967V3.2ZM63.6309 17H66.1609V0.899999H63.6309V17ZM70.3338 4.603C70.3338 3.453 70.8398 3.016 71.6448 3.016C72.4498 3.016 72.9558 3.453 72.9558 4.603V13.297C72.9558 14.447 72.4498 14.884 71.6448 14.884C70.8398 14.884 70.3338 14.447 70.3338 13.297V4.603ZM67.8038 13.136C67.8038 15.712 69.1608 17.184 71.6448 17.184C74.1288 17.184 75.4858 15.712 75.4858 13.136V4.764C75.4858 2.188 74.1288 0.716 71.6448 0.716C69.1608 0.716 67.8038 2.188 67.8038 4.764V13.136ZM82.535 17H85.134V0.899999H82.88V10.537L80.281 0.899999H77.107V17H79.384V5.339L82.535 17Z" fill="#222222"/>
</svg>
