<svg width="28" height="20" viewBox="0 0 28 20" fill="none" xmlns="http://www.w3.org/2000/svg">
<path d="M27.5213 6.20999C27.5213 4.563 26.886 2.98346 25.7552 1.81886C24.6243 0.654261 23.0906 0 21.4914 0H6.02994C4.4307 0 2.89696 0.654261 1.76613 1.81886C0.635293 2.98346 0 4.563 0 6.20999V13.6054C0 14.4209 0.155967 15.2284 0.459 15.9818C0.762034 16.7352 1.2062 17.4198 1.76613 17.9965C2.32606 18.5731 2.9908 19.0306 3.72238 19.3426C4.45397 19.6547 5.23808 19.8153 6.02994 19.8153H21.4914C22.2832 19.8153 23.0673 19.6547 23.7989 19.3426C24.5305 19.0306 25.1952 18.5731 25.7552 17.9965C26.3151 17.4198 26.7593 16.7352 27.0623 15.9818C27.3653 15.2284 27.5213 14.4209 27.5213 13.6054V6.20999ZM18.4506 10.4915L11.5789 14.03C11.304 14.1715 10.3935 14.03 10.3935 13.6584V6.42229C10.3935 6.10383 11.3212 5.89152 11.5789 6.05075L18.2101 9.76613C18.4334 9.88998 18.7255 10.3146 18.4506 10.4915Z" fill="white"/>
</svg>
