<svg width="19" height="19" viewBox="0 0 19 19" fill="none" xmlns="http://www.w3.org/2000/svg">
<g clip-path="url(#clip0_212_521)">
<path d="M5.06657 4.11693V2.85029C5.06657 2.67542 4.92478 2.53363 4.74991 2.53363H0.31666C0.141786 2.53363 0 2.67542 0 2.85029V4.11693H5.06657Z" fill="#585858"/>
<path d="M0 4.75025V15.2H5.06657V4.75025H0ZM3.79992 8.86684H1.26664C1.09177 8.86684 0.949981 8.72505 0.949981 8.55018V6.01689C0.949981 5.84202 1.09177 5.70023 1.26664 5.70023H3.79992C3.9748 5.70023 4.11658 5.84202 4.11658 6.01689V8.55018C4.11658 8.72505 3.9748 8.86684 3.79992 8.86684Z" fill="#585858"/>
<path d="M0 17.1V18.6833C0 18.8582 0.141786 19 0.31666 19H4.74991C4.92478 19 5.06657 18.8582 5.06657 18.6833V17.1H0Z" fill="#585858"/>
<path d="M0 15.8334H5.06657V16.4667H0V15.8334Z" fill="#585858"/>
<path d="M5.7002 15.8334H9.81678V16.4667H5.7002V15.8334Z" fill="#585858"/>
<path d="M9.81678 1.26698V0.317004C9.81678 0.142129 9.67499 0.000343323 9.50012 0.000343323H6.01686C5.84198 0.000343323 5.7002 0.142129 5.7002 0.317004V1.26698H9.81678Z" fill="#585858"/>
<path d="M5.7002 3.48361H9.81678V15.2H5.7002V3.48361Z" fill="#585858"/>
<path d="M5.7002 17.1V18.6833C5.7002 18.8582 5.84198 19 6.01686 19H9.50012C9.67499 19 9.81678 18.8582 9.81678 18.6833V17.1H5.7002Z" fill="#585858"/>
<path d="M5.7002 1.90031H9.81678V2.85029H5.7002V1.90031Z" fill="#585858"/>
<path d="M10.4424 6.55775L10.6118 7.20824L15.9747 5.77816L15.805 5.12768L10.4424 6.55775Z" fill="#585858"/>
<path d="M13.0889 16.702L18.4515 15.2719L18.112 13.9702L12.749 15.4003L13.0889 16.702Z" fill="#585858"/>
<path d="M17.9517 13.3574L16.1345 6.39091L10.7715 7.82099L12.5887 14.7875L17.9517 13.3574Z" fill="#585858"/>
<path d="M10.2827 5.94499L15.6452 4.51507L15.1907 2.77112C15.1438 2.60228 14.9713 2.50131 14.8012 2.54321L10.0513 3.80985C9.88351 3.85578 9.78348 4.02756 9.82631 4.19609L10.2827 5.94499Z" fill="#585858"/>
<path d="M18.611 15.8847L13.248 17.3148L13.6258 18.7625C13.6477 18.8441 13.7012 18.9137 13.7747 18.9557C13.8225 18.9847 13.8772 19 13.933 19C13.9607 19 13.9884 18.9967 14.0153 18.9905L18.7652 17.7239C18.9329 17.678 19.033 17.506 18.9901 17.3375L18.611 15.8847Z" fill="#585858"/>
</g>
<defs>
<clipPath id="clip0_212_521">
<rect width="19" height="19" fill="white"/>
</clipPath>
</defs>
</svg>
