<svg width="19" height="19" viewBox="0 0 19 19" fill="none" xmlns="http://www.w3.org/2000/svg">
<path d="M18.4877 8.26408C18.4873 8.26365 18.4869 8.26321 18.4864 8.26278L10.7359 0.512573C10.4056 0.182068 9.96635 0 9.49915 0C9.03195 0 8.59272 0.181923 8.26222 0.512428L0.515782 8.25872C0.513173 8.26133 0.510563 8.26408 0.507954 8.26669C-0.170452 8.94901 -0.169292 10.0561 0.511288 10.7366C0.822224 11.0477 1.23289 11.2279 1.67197 11.2467C1.6898 11.2485 1.70778 11.2494 1.7259 11.2494H2.0348V16.953C2.0348 18.0817 2.95311 19 4.08205 19H7.11429C7.4216 19 7.67093 18.7508 7.67093 18.4434V13.9717C7.67093 13.4566 8.08986 13.0377 8.6049 13.0377H10.3934C10.9084 13.0377 11.3274 13.4566 11.3274 13.9717V18.4434C11.3274 18.7508 11.5765 19 11.884 19H14.9162C16.0452 19 16.9635 18.0817 16.9635 16.953V11.2494H17.2499C17.717 11.2494 18.1562 11.0674 18.4869 10.7369C19.1682 10.0552 19.1685 8.94626 18.4877 8.26408Z" fill="#FF7136"/>
</svg>
