<svg width="22" height="22" viewBox="0 0 22 22" fill="none" xmlns="http://www.w3.org/2000/svg">
<path d="M10.6626 8.90432L3.31055 16.7428L5.20185 18.6656L13.0362 11.3174L10.6626 8.90432Z" fill="#585858"/>
<path d="M12.8271 8.51796L13.5359 9.23678C14.4034 8.87032 17.8519 7.23861 18.7883 4.12673L17.8673 3.19263C14.7102 4.20678 13.1195 7.79429 12.8271 8.51796Z" fill="#585858"/>
<path d="M10.5479 6.21585L10.924 6.59726C11.0216 6.06426 11.2393 5.19057 11.7096 4.28874C12.3493 3.06215 13.5825 1.57936 15.8762 1.18269L15.6621 0.965516C14.1654 0.879995 12.9689 1.25435 12.1068 2.08154C10.6779 3.45243 10.5561 5.68662 10.5479 6.21585Z" fill="#585858"/>
<path d="M11.8633 7.53135L12.3062 7.97953C12.4038 7.44653 12.6215 6.57284 13.0918 5.67101C13.7315 4.44442 14.9647 2.96163 17.2584 2.56497L16.9775 2.28102C15.4809 2.1955 14.2844 2.56986 13.4222 3.39705C11.9934 4.76794 11.8715 7.00212 11.8633 7.53135Z" fill="#585858"/>
<path d="M18.1018 0.584328L16.2373 0.67307L18.0475 2.50901C18.0673 2.50396 18.0871 2.49849 18.107 2.49363L18.1315 2.59434L21.2846 5.79229L21.3836 3.71481L18.1018 0.584328Z" fill="#585858"/>
<path d="M2.89441 17.1868L2.85819 17.2254L2.86573 17.233L2.44043 17.6583L4.28755 19.5361L4.72822 19.0955L4.73582 19.103L4.75837 19.0819L2.89441 17.1868Z" fill="#585858"/>
<path d="M17.696 10.3693C16.8231 10.8298 15.9755 11.0524 15.4395 11.1567L15.8165 11.5391C16.4136 11.5221 18.571 11.3613 19.9012 9.96165C20.7324 9.08699 21.1004 7.87401 20.9978 6.35688L20.7893 6.14542C20.4149 8.46834 18.927 9.71979 17.696 10.3693Z" fill="#585858"/>
<path d="M10.665 7.18988L10.7208 8.09639L13.8278 11.2552L14.7484 11.3314L10.665 7.18988Z" fill="#585858"/>
<path d="M1.83056 17.9046C1.09801 18.1011 0.576008 18.4684 0.277626 19.0027C-0.336155 20.1018 0.255562 21.4671 0.281091 21.5247L0.32996 21.635L0.441252 21.6818C1.42107 22.0936 2.25233 22.1058 2.91212 21.7177C3.56523 21.3336 3.88598 20.6465 4.03915 20.15L1.83056 17.9046Z" fill="#585858"/>
<path d="M20.8845 6.25278C20.857 7.64039 20.4284 8.78055 19.6028 9.64761C18.3869 10.9247 16.6317 11.28 15.6465 11.3774L15.7544 11.4869C17.752 11.7521 19.2485 11.3979 20.2094 10.4292C21.2982 9.33148 21.4157 7.73193 21.363 6.73801L20.8845 6.25278Z" fill="#585858"/>
<path d="M10.705 6.36531C10.7949 5.38324 11.1385 3.61119 12.4178 2.38144C13.2772 1.55534 14.409 1.12142 15.7886 1.08403L15.3625 0.651932C14.37 0.57954 12.695 0.657706 11.5595 1.77604C10.6015 2.71963 10.2451 4.1896 10.4955 6.15287L10.705 6.36531Z" fill="#585858"/>
<path d="M19.9787 5.32672L19.6033 4.94798C19.0828 6.39284 18.0077 7.72027 16.4597 8.81892C15.6052 9.42528 14.8064 9.82402 14.3301 10.0369L14.6492 10.3587C14.9739 10.3168 16.0609 10.1408 17.1628 9.55524C18.8685 8.64897 19.8153 7.22629 19.9787 5.32672Z" fill="#585858"/>
<path d="M21.5623 3.04519C22.2147 1.81344 21.5628 0.638875 21.5321 0.585082L21.4913 0.513602L21.4199 0.472452C20.2962 -0.175611 19.2993 0.195162 18.8379 0.446437L21.5623 3.04519Z" fill="#585858"/>
</svg>
